<?xml version="1.0"?>
<svg xmlns="http://www.w3.org/2000/svg" width="512" height="512" viewBox="0 0 128 128"><g><path d="M122.041,58.128,109.82,55.65,97.388,34.528a1.751,1.751,0,0,0-1.508-.862H89.913V27.554a1.749,1.749,0,0,0-1.75-1.75h-6.1a1.75,1.75,0,0,0-1.75,1.75v6.112H75.736V27.554a1.749,1.749,0,0,0-1.75-1.75H6.307a1.749,1.749,0,0,0-1.75,1.75V93.06a1.75,1.75,0,0,0,1.75,1.75H16.813a15.216,15.216,0,0,0,26.093,0H85.094a15.216,15.216,0,0,0,26.093,0h10.506a1.75,1.75,0,0,0,1.75-1.75V59.844A1.751,1.751,0,0,0,122.041,58.128Zm-2.1,12.842H115.13V67.729h4.813Zm-14.3-15.51H83.813V44.618H99.265ZM83.813,29.3h2.6v4.362h-2.6Zm11.066,7.862,2.326,3.952H82.063a1.75,1.75,0,0,0-1.75,1.75V57.21a1.75,1.75,0,0,0,1.75,1.75h26.471l11.409,2.314v2.955H113.38a1.75,1.75,0,0,0-1.75,1.75V72.72a1.749,1.749,0,0,0,1.75,1.75h6.563v4.647H111.22a15.217,15.217,0,0,0-26.159,0H75.736V37.166ZM72.236,29.3V79.117h-29.3a15.217,15.217,0,0,0-26.159,0H8.057V29.3ZM8.057,91.31V82.617h7.175a15.1,15.1,0,0,0,.014,8.693Zm21.8,7.386a11.76,11.76,0,1,1,11.76-11.759A11.772,11.772,0,0,1,29.859,98.7ZM44.473,91.31a15.1,15.1,0,0,0,.014-8.693H83.513a15.1,15.1,0,0,0,.014,8.693ZM98.141,98.7A11.76,11.76,0,1,1,109.9,86.937,11.772,11.772,0,0,1,98.141,98.7Zm21.8-7.386h-7.189a15.1,15.1,0,0,0,.014-8.693h7.175Z"/><path d="M29.859,80.158a6.778,6.778,0,1,0,6.779,6.779A6.786,6.786,0,0,0,29.859,80.158Zm0,10.056a3.278,3.278,0,1,1,3.279-3.277A3.281,3.281,0,0,1,29.859,90.214Z"/><path d="M98.141,80.158a6.778,6.778,0,1,0,6.778,6.779A6.787,6.787,0,0,0,98.141,80.158Zm0,10.056a3.278,3.278,0,1,1,3.278-3.277A3.282,3.282,0,0,1,98.141,90.214Z"/><path d="M82.063,65.75h4.006a1.75,1.75,0,1,0,0-3.5H82.063a1.75,1.75,0,1,0,0,3.5Z"/><path d="M46.678,54.4a1.751,1.751,0,0,0-1.75,1.75v7H35.365v-7a1.75,1.75,0,0,0-3.5,0V64.9a1.749,1.749,0,0,0,1.75,1.75H46.678a1.749,1.749,0,0,0,1.75-1.75V56.15A1.75,1.75,0,0,0,46.678,54.4Z"/><path d="M30.526,54.5l9.62-9.62,9.621,9.62a1.75,1.75,0,0,0,2.475-2.475l-3.814-3.813V42.688a1.75,1.75,0,0,0-3.5,0v2.028l-3.544-3.545a1.751,1.751,0,0,0-2.475,0L28.051,52.029A1.75,1.75,0,0,0,30.526,54.5Z"/></g></svg>
